<?xml version="1.0" encoding="UTF-8"?>
<svg version="1.1" viewBox="0 0 68 68" xmlns="http://www.w3.org/2000/svg">
<title>Artboard</title>
<desc>Created with Sketch.</desc>
<g fill="none" fill-rule="evenodd">
<g fill-rule="nonzero">
<path d="m68 34c0 18.784-15.227 34-33.993 34-18.766 0-34.007-15.23-34.007-34 0-18.784 15.227-34 33.993-34 18.766 0 34.007 15.216 34.007 34" fill="#000111"/>
<g transform="translate(5 26)">
<path d="m6.222 1.1486c0.56138 0.19078 1.1187 0.53087 1.6719 1.0203l-1.2448 1.8041c-0.36612-0.34839-0.73833-0.5993-1.1166-0.75276-0.37832-0.15346-0.79935-0.23018-1.2631-0.23018-0.28476 0-0.51256 0.043548-0.68341 0.13064-0.17085 0.087096-0.25628 0.20115-0.25628 0.34216 0 0.091244 0.081358 0.16175 0.24408 0.21152 0.16272 0.049769 0.44747 0.11198 0.85427 0.18663 1.1797 0.21567 2.0279 0.54124 2.5445 0.97672 0.51663 0.43548 0.77494 1.0472 0.77494 1.8352 0 0.56405-0.15865 1.0451-0.47595 1.4433-0.3173 0.39815-0.7485 0.69884-1.2936 0.90206-0.54511 0.20322-1.1553 0.30484-1.8306 0.30484-0.9519 0-1.7126-0.091242-2.2821-0.27373s-1.1268-0.47695-1.6719-0.8834l1.2204-1.9659c0.34171 0.34009 0.71596 0.59101 1.1228 0.75276 0.4068 0.16175 0.8746 0.24262 1.4034 0.24262 0.59392 0 0.89088-0.12442 0.89088-0.37327 0-0.13272-0.093562-0.23226-0.28069-0.29861s-0.49222-0.13686-0.91529-0.21152c-0.61833-0.11613-1.1451-0.24884-1.5804-0.39815-0.43527-0.14931-0.81765-0.4023-1.1472-0.75898-0.3295-0.35668-0.49425-0.84607-0.49425-1.4682 0-0.56405 0.14644-1.0576 0.43934-1.4806 0.29289-0.42304 0.72206-0.75276 1.2875-0.98916 0.56545-0.2364 1.2468-0.3546 2.0441-0.3546s1.4767 0.09539 2.038 0.28617zm9.6822 1.9659h-2.514v6.0843h-2.8435v-6.0843h-2.5262v-2.1276h7.8837v2.1276zm8.2788 2.5507c0 2.4387-1.2977 3.658-3.893 3.658s-3.893-1.2193-3.893-3.658v-4.6783h2.8557v4.9023c0 0.41474 0.08746 0.72787 0.26238 0.93939 0.17492 0.21152 0.43323 0.31728 0.77494 0.31728 0.34171 0 0.60205-0.10576 0.78104-0.31728 0.17899-0.21152 0.26848-0.52465 0.26848-0.93939v-4.9023h2.8435v4.6783zm7.6625-3.6145c0.64681 0.70921 0.9702 1.7232 0.9702 3.0421 0 1.3189-0.3234 2.3329-0.9702 3.0421-0.64681 0.70921-1.5967 1.0638-2.8496 1.0638h-3.954v-8.2119h3.954c1.2529 0 2.2028 0.3546 2.8496 1.0638zm-2.215 4.6099c0.18713-0.31521 0.28069-0.83778 0.28069-1.5677 0-0.72995-0.093562-1.2525-0.28069-1.5677s-0.5329-0.47281-1.0373-0.47281h-0.70782v4.0811h0.70782c0.50443 0 0.8502-0.1576 1.0373-0.47281zm10.805 0.41059v2.1276h-6.8341v-8.2119h6.6877v2.1276h-3.8442v1.0203h3.0998v1.9659h-3.0998v0.9705h3.9906zm8.5107 2.1276h-3.0754l-1.9282-3.7327-0.43934-1.0078h-0.024408l0.048815 1.6921v3.0484h-2.4652v-8.2119h3.0754l1.9282 3.7451 0.43934 0.99538h0.024408l-0.048815-1.6921v-3.0484h2.4652v8.2119zm8.5595-6.0843h-2.514v6.0843h-2.8435v-6.0843h-2.5262v-2.1276h7.8837v2.1276z" fill="#F77F00"/>
<path d="m23.432 15.649c0 1.1198-0.33357 1.9845-1.0007 2.5942-0.66715 0.60967-1.6109 0.91451-2.8313 0.91451-1.1716 0-2.0441-0.25714-2.6177-0.77142-0.57358-0.51428-0.86037-1.2193-0.86037-2.1152 0-0.28203 0.024407-0.56405 0.073223-0.84607l2.8435-0.48525c-0.04068 0.28203-0.061019 0.57234-0.061019 0.87096 0 0.42304 0.06712 0.72372 0.20136 0.90206 0.13424 0.17834 0.3356 0.26751 0.60409 0.26751 0.27662 0 0.48002-0.12235 0.61019-0.36705 0.13017-0.2447 0.19526-0.63663 0.19526-1.1758v-4.6161h2.8435v4.8276zm7.7113-3.8384c0.72003 0.74239 1.08 1.7813 1.08 3.1168 0 1.3355-0.36001 2.3744-1.08 3.1168-0.72003 0.74239-1.7228 1.1136-3.0082 1.1136-0.84614 0-1.5763-0.1659-2.1906-0.49769-0.61426-0.3318-1.0861-0.81497-1.4156-1.4495-0.3295-0.63456-0.49425-1.3956-0.49425-2.2832 0-0.88755 0.16475-1.6486 0.49425-2.2832 0.3295-0.63456 0.80138-1.1177 1.4156-1.4495 0.61426-0.3318 1.3444-0.49769 2.1906-0.49769 1.2855 0 2.2882 0.37119 3.0082 1.1136zm-3.9174 1.5553c-0.19119 0.32765-0.28679 0.84814-0.28679 1.5615s0.095596 1.2339 0.28679 1.5615c0.19119 0.32765 0.49425 0.49147 0.90918 0.49147s0.71596-0.16382 0.90308-0.49147c0.18713-0.32765 0.28069-0.84814 0.28069-1.5615s-0.093562-1.2339-0.28069-1.5615-0.48815-0.49147-0.90308-0.49147-0.71799 0.16382-0.90918 0.49147zm5.7831-2.5444h4.613c1.017 0.0082949 1.7736 0.19285 2.2699 0.55368 0.49629 0.36083 0.74443 0.90621 0.74443 1.6362 0 0.50599-0.15255 0.92695-0.45764 1.2629-0.3051 0.33594-0.75867 0.54539-1.3607 0.62833v0.012442c0.68342 0.074654 1.1919 0.28202 1.5255 0.62211 0.33357 0.34009 0.50036 0.78386 0.50036 1.3313 0 0.72166-0.24001 1.2629-0.72003 1.6237-0.48002 0.36083-1.2082 0.54124-2.1845 0.54124h-4.9303v-8.2119zm3.9662 3.1852c0.50443 0 0.75664-0.19907 0.75664-0.59723 0-0.39815-0.25221-0.59723-0.75664-0.59723h-1.2448v1.1945h1.2448zm0.20746 3.1355c0.50443 0 0.75664-0.20322 0.75664-0.60967 0-0.38986-0.25221-0.58479-0.75664-0.58479h-1.4523v1.1945h1.4523z" fill="#fff"/>
</g>
</g>
</g>
</svg>
